<svg xmlns="http://www.w3.org/2000/svg" viewBox="0 0 100 100" width="100" height="100">
  <defs>
    <linearGradient id="bg" x1="0%" y1="0%" x2="100%" y2="100%">
      <stop offset="0%" stop-color="#581c87"/>
      <stop offset="100%" stop-color="#7c3aed"/>
    </linearGradient>
  </defs>

  <!-- Rounded square background -->
  <rect width="100" height="100" rx="22" fill="url(#bg)"/>

  <!-- Brain left lobe -->
  <path d="M50 18 C40 18 28 24 24 34 C20 42 22 50 26 56 C28 62 26 70 32 74 C38 78 44 76 50 76"
        fill="none" stroke="white" stroke-width="4.5" stroke-linecap="round"/>
  <!-- Brain right lobe -->
  <path d="M50 18 C60 18 72 24 76 34 C80 42 78 50 74 56 C72 62 74 70 68 74 C62 78 56 76 50 76"
        fill="none" stroke="white" stroke-width="4.5" stroke-linecap="round"/>
  <!-- Center divider -->
  <line x1="50" y1="20" x2="50" y2="74" stroke="white" stroke-width="2" stroke-dasharray="3,3" opacity="0.5"/>

  <!-- Neural nodes -->
  <circle cx="35" cy="36" r="3.5" fill="#fbbf24"/>
  <circle cx="50" cy="30" r="3.5" fill="#fbbf24"/>
  <circle cx="65" cy="36" r="3.5" fill="#fbbf24"/>
  <circle cx="30" cy="50" r="3.5" fill="#fbbf24"/>
  <circle cx="50" cy="48" r="5"   fill="#fde68a"/>
  <circle cx="70" cy="50" r="3.5" fill="#fbbf24"/>
  <circle cx="37" cy="63" r="3.5" fill="#fbbf24"/>
  <circle cx="63" cy="63" r="3.5" fill="#fbbf24"/>

  <!-- Connections -->
  <line x1="35" y1="36" x2="50" y2="30" stroke="white" stroke-width="1.2" opacity="0.35"/>
  <line x1="50" y1="30" x2="65" y2="36" stroke="white" stroke-width="1.2" opacity="0.35"/>
  <line x1="30" y1="50" x2="50" y2="48" stroke="white" stroke-width="1.2" opacity="0.35"/>
  <line x1="50" y1="48" x2="70" y2="50" stroke="white" stroke-width="1.2" opacity="0.35"/>
  <line x1="35" y1="36" x2="30" y2="50" stroke="white" stroke-width="1.2" opacity="0.35"/>
  <line x1="65" y1="36" x2="70" y2="50" stroke="white" stroke-width="1.2" opacity="0.35"/>
  <line x1="30" y1="50" x2="37" y2="63" stroke="white" stroke-width="1.2" opacity="0.35"/>
  <line x1="70" y1="50" x2="63" y2="63" stroke="white" stroke-width="1.2" opacity="0.35"/>
  <line x1="50" y1="48" x2="37" y2="63" stroke="white" stroke-width="1.2" opacity="0.35"/>
  <line x1="50" y1="48" x2="63" y2="63" stroke="white" stroke-width="1.2" opacity="0.35"/>
</svg>